<?xml version="1.0" encoding="utf-8"?>
<!-- Generator: Adobe Illustrator 17.1.0, SVG Export Plug-In . SVG Version: 6.00 Build 0)  -->
<!DOCTYPE svg PUBLIC "-//W3C//DTD SVG 1.1//EN" "http://www.w3.org/Graphics/SVG/1.1/DTD/svg11.dtd">
<svg version="1.1" id="Layer_1" xmlns="http://www.w3.org/2000/svg" xmlns:xlink="http://www.w3.org/1999/xlink" x="0px" y="0px"
	 viewBox="0 0 160 108.8" enable-background="new 0 0 160 108.8" xml:space="preserve">
<g>
	<g>
		<path fill="#F4EED8" d="M51.1,24.3c0,2.6-0.8,4.7-2.3,6.2c-1.5,1.5-3.6,2.3-6.2,2.3c-1.2,0-2.5-0.2-4.1-0.6
			c-1.5-0.4-2.7-0.6-3.6-0.6c-0.1-2.2-0.2-4.5-0.5-6.7c0-0.2,0.2-0.3,0.6-0.3c0.3,0,0.4,0.1,0.5,0.3c0.7,2.4,1.6,4.2,2.7,5.2
			c1.1,1,2.6,1.5,4.6,1.5c1.6,0,2.8-0.5,3.6-1.4c0.9-0.9,1.3-2.2,1.3-3.9c0-1.1-0.4-2-1.1-3c-0.8-0.9-2.4-2.1-4.8-3.5
			c-2.8-1.6-4.7-3-5.5-4.2c-0.9-1.1-1.3-2.4-1.3-3.8c0-2.1,0.8-3.9,2.3-5.4c1.6-1.5,3.5-2.2,5.9-2.2c0.9,0,2,0.1,3.1,0.4
			c1.1,0.2,2.1,0.3,2.9,0.3c0.2,2.3,0.4,4.3,0.6,6.1c0,0.2-0.2,0.3-0.5,0.3c-0.4,0-0.6-0.1-0.6-0.3c-0.4-2-1.1-3.4-1.9-4.2
			c-0.9-0.9-2.1-1.3-3.6-1.3c-1.5,0-2.6,0.4-3.5,1.3c-0.9,0.9-1.3,2-1.3,3.5c0,0.9,0.4,1.8,1.1,2.7c0.7,0.8,2.3,2,4.7,3.4
			c2.8,1.7,4.7,3.1,5.6,4.2C50.7,21.7,51.1,22.9,51.1,24.3z"/>
		<path fill="#F4EED8" d="M66,16.5c0,0.7-0.2,1.1-0.5,1.1l-5.8-0.2v9.4c0,2.5,0.9,3.7,2.6,3.7c1.1,0,2.1-0.3,2.9-0.8
			c0.1,0,0.2,0.1,0.3,0.2c0.1,0.1,0.1,0.3,0.1,0.4c0,0.3-0.5,0.8-1.4,1.3c-1,0.6-2,0.8-3.3,0.8c-1.5,0-2.7-0.5-3.5-1.4
			c-0.9-0.9-1.3-2.1-1.3-3.6v-0.2l0.1-9.6c0-0.4-0.2-0.6-0.5-0.6h-1.5c-0.3,0-0.4-0.2-0.4-0.5c0-0.3,0.1-0.5,0.3-0.6
			c1.8-1.1,3.4-2.6,4.7-4.6c0.1-0.2,0.3-0.3,0.5-0.3c0.4,0,0.5,0.1,0.5,0.3l-0.2,3.8h5.7C65.8,15.5,66,15.8,66,16.5z"/>
		<path fill="#F4EED8" d="M86.8,30.9c0,0.3-0.1,0.4-0.3,0.5c-2.4,0.3-4,0.7-4.8,1.4c-0.2,0.1-0.4,0.2-0.5,0.2
			c-0.3,0-0.4-0.1-0.4-0.3l0.2-2.5c-1.9,1.8-3.7,2.6-5.2,2.6c-1.8,0-3.2-0.5-4.2-1.5c-1-1-1.5-2.4-1.5-4.1v-7.4
			c0-1.2-0.1-1.9-0.4-2.3c-0.3-0.4-0.9-0.6-1.8-0.6c-0.2,0-0.4,0-0.6,0c-0.2,0-0.3-0.2-0.3-0.5c0-0.4,0.1-0.6,0.3-0.6
			c1.5,0,3.5-0.3,5.9-0.9c0.2,0,0.3,0.2,0.3,0.5v10.8c0,1.5,0.3,2.6,0.8,3.2c0.6,0.7,1.4,1,2.6,1c0.8,0,1.4-0.1,2-0.4
			s1.2-0.8,1.9-1.5v-8.7c0-1.2-0.2-1.9-0.5-2.3c-0.3-0.4-0.9-0.6-1.8-0.6c-0.2,0-0.3,0-0.5,0c-0.2,0-0.3-0.2-0.3-0.5
			c0-0.4,0.1-0.6,0.3-0.6c1.5,0,3.5-0.3,5.9-0.9c0.2,0,0.4,0.2,0.4,0.5v12.5c0,0.9,0.1,1.5,0.4,1.8s0.8,0.5,1.8,0.7
			C86.7,30.4,86.8,30.5,86.8,30.9z"/>
		<path fill="#F4EED8" d="M108.1,30.9c0,0.3-0.1,0.4-0.3,0.5c-0.7,0.1-1.6,0.3-2.6,0.6c-1,0.3-1.7,0.6-2.3,0.8
			c-0.3,0.1-0.5,0.2-0.6,0.2c-0.2,0-0.3-0.1-0.3-0.3l0.2-2.1c-1.4,1.5-3.1,2.3-5.2,2.3c-2.2,0-4.2-0.9-5.7-2.6
			c-1.6-1.7-2.4-3.8-2.4-6.3c0-2.8,0.9-5,2.6-6.7c1.7-1.7,3.9-2.6,6.6-2.6c1.5,0,2.9,0.5,4.2,1.4V9.5c0-1.1-0.1-1.8-0.4-2.1
			c-0.3-0.3-0.9-0.5-1.8-0.6c-0.2,0-0.3-0.2-0.3-0.5c0-0.3,0.1-0.5,0.3-0.5c1.2-0.3,2.3-0.6,3.2-1s1.5-0.8,1.8-1.1
			c0.1-0.1,0.3-0.2,0.4-0.2c0.4,0,0.5,0.1,0.5,0.3c-0.2,2.9-0.3,5.1-0.3,6.8v17.3c0,0.9,0.1,1.5,0.4,1.8c0.3,0.3,0.9,0.5,1.8,0.7
			C108,30.3,108.1,30.5,108.1,30.9z M102.1,28.8V18.7c0-0.7-0.4-1.3-1.2-1.9c-0.8-0.6-1.6-0.9-2.6-0.9c-3.8,0-5.7,2.7-5.7,8.1
			c0,2.1,0.5,3.9,1.4,5.3c0.9,1.4,2.1,2.1,3.6,2.1c0.8,0,1.6-0.2,2.3-0.6C100.6,30.4,101.4,29.7,102.1,28.8z"/>
		<path fill="#F4EED8" d="M118.7,31.6c0,0.4-0.1,0.6-0.3,0.6c-0.5,0-1.2,0-2-0.1c-0.9-0.1-1.7-0.1-2.3-0.1c-0.6,0-1.4,0-2.3,0.1
			c-0.8,0.1-1.5,0.1-2,0.1c-0.2,0-0.3-0.2-0.3-0.6c0-0.3,0.1-0.5,0.3-0.5c1.1-0.1,1.8-0.4,2.1-0.8c0.3-0.4,0.5-1.2,0.5-2.5v-7.3
			c0-1-0.1-1.7-0.4-2.1c-0.3-0.3-0.8-0.5-1.7-0.6c-0.2,0-0.3-0.2-0.3-0.5c0-0.3,0.1-0.5,0.3-0.5c1.4-0.4,2.5-0.7,3.3-1.1
			s1.4-0.7,1.6-1c0.1-0.2,0.3-0.2,0.4-0.2c0.4,0,0.5,0.1,0.5,0.3c-0.2,2.9-0.3,5.2-0.3,6.8v6.2c0,1.3,0.2,2.1,0.5,2.5
			c0.3,0.4,1,0.7,2.2,0.8C118.5,31.1,118.7,31.3,118.7,31.6z M115.9,7.8c0,0.6-0.2,1-0.6,1.4c-0.4,0.4-0.9,0.6-1.4,0.6
			c-0.6,0-1-0.2-1.4-0.6s-0.6-0.9-0.6-1.4c0-0.6,0.2-1.1,0.6-1.5c0.4-0.4,0.9-0.6,1.4-0.6c0.6,0,1,0.2,1.4,0.6
			C115.7,6.8,115.9,7.3,115.9,7.8z"/>
		<path fill="#F4EED8" d="M138.7,23.8c0,2.6-0.8,4.8-2.5,6.4c-1.7,1.7-3.9,2.5-6.5,2.5s-4.9-0.8-6.5-2.5c-1.7-1.7-2.5-3.8-2.5-6.4
			c0-2.6,0.9-4.8,2.6-6.6s3.9-2.6,6.5-2.6c2.7,0,4.8,0.9,6.5,2.6C137.8,19,138.7,21.1,138.7,23.8z M134.8,23.8
			c0-2.4-0.5-4.3-1.4-5.7c-0.9-1.4-2.2-2.2-3.8-2.2c-1.6,0-2.8,0.7-3.8,2.2s-1.4,3.4-1.4,5.7c0,2.4,0.5,4.3,1.4,5.7
			c0.9,1.4,2.2,2.1,3.8,2.1s2.9-0.7,3.8-2.1C134.3,28,134.8,26.2,134.8,23.8z"/>
		<path fill="#F4EED8" d="M34,43.6c0,0.3-0.2,0.4-0.7,0.4c-0.2,0-0.4-0.1-0.4-0.3c-0.5-1.5-1.2-2.7-2.3-3.5c-1.1-0.8-2.5-1.2-4-1.2
			H23c-1.5,0-2.3,0.8-2.3,2.4v8.7h4.4c1.3,0,2.2-0.3,2.6-0.9c0.5-0.6,0.8-1.7,1-3.2c0-0.2,0.2-0.3,0.5-0.3c0.4,0,0.5,0.1,0.5,0.3
			c0,0.7,0,1.5-0.1,2.5c-0.1,1-0.1,1.7-0.1,2.3c0,0.6,0,1.4,0.1,2.4c0.1,1,0.1,1.9,0.1,2.5c0,0.2-0.2,0.3-0.5,0.3
			c-0.4,0-0.5-0.1-0.5-0.3c-0.2-1.6-0.6-2.7-1-3.4c-0.5-0.6-1.3-1-2.6-1h-4.4v9.1c0,0.9,0.1,1.5,0.3,1.9c0.2,0.4,0.6,0.7,1.2,0.9
			c0.6,0.2,1.4,0.4,2.5,0.5c0.2,0,0.3,0.2,0.3,0.5c0,0.4-0.1,0.5-0.3,0.5c-0.9,0-1.9,0-3.1-0.1c-1.2-0.1-2.1-0.1-2.9-0.1
			c-0.8,0-1.8,0-2.9,0.1c-1.2,0.1-2.2,0.1-3.1,0.1c-0.2,0-0.3-0.2-0.3-0.5c0-0.3,0.1-0.5,0.3-0.5c1.1-0.1,1.9-0.3,2.5-0.5
			c0.6-0.2,1-0.5,1.2-0.9c0.2-0.4,0.3-1,0.3-1.9V42c0-0.9-0.1-1.5-0.3-1.9c-0.2-0.4-0.6-0.7-1.2-0.9c-0.6-0.2-1.4-0.4-2.5-0.5
			c-0.2,0-0.3-0.2-0.3-0.5s0.1-0.5,0.3-0.5c3.3,0.2,6.6,0.2,10,0.2c3.2,0,6.5-0.1,9.7-0.2C33,39.9,33.4,41.9,34,43.6z"/>
		<path fill="#F4EED8" d="M46,65.4c-0.7,0-1.4-0.2-1.9-0.5c-0.5-0.4-0.9-0.8-1.1-1.5c-1.4,1.4-3.2,2.2-5.4,2.2
			c-1.2,0-2.1-0.4-2.9-1.1c-0.7-0.7-1.1-1.6-1.1-2.7c0-2.7,3.2-4.9,9.5-6.5l0.1-3.1V52c0-0.9-0.2-1.7-0.7-2.3
			c-0.5-0.6-1.1-0.8-1.8-0.8c-0.8,0-1.4,0.2-1.9,0.6c-0.5,0.4-0.8,0.8-0.8,1.4c0,0.8-0.2,1.5-0.7,2c-0.4,0.5-1,0.7-1.7,0.7
			c-0.4,0-0.8-0.1-1-0.4c-0.3-0.2-0.4-0.6-0.4-1c0-1,0.9-2.1,2.7-3.2c1.8-1.1,3.5-1.7,5.1-1.7c1.4,0,2.5,0.4,3.4,1.3
			c0.9,0.8,1.3,2,1.3,3.4v0.2l-0.3,8.9v0.1c0,1.4,0.4,2.1,1.3,2.1c0.4,0,0.9-0.3,1.5-0.8l0.1,0c0.1,0,0.2,0.1,0.3,0.2
			c0.1,0.1,0.1,0.3,0.1,0.4c0,0.4-0.4,0.8-1.2,1.4C47.8,65.1,46.9,65.4,46,65.4z M43,56.5c-3.8,0.9-5.7,2.3-5.7,4.3
			c0,1.9,0.7,2.8,2.1,2.8c0.7,0,1.4-0.2,2-0.5c0.7-0.3,1.1-0.8,1.3-1.3L43,56.5z"/>
		<path fill="#F4EED8" d="M69.4,63.6c0,0.3-0.1,0.4-0.3,0.5c-2.4,0.3-4,0.7-4.8,1.4c-0.2,0.1-0.4,0.2-0.5,0.2
			c-0.3,0-0.4-0.1-0.4-0.3l0.2-2.5c-1.9,1.8-3.7,2.6-5.2,2.6c-1.8,0-3.2-0.5-4.2-1.5s-1.5-2.4-1.5-4.1v-7.4c0-1.2-0.1-1.9-0.4-2.3
			c-0.3-0.4-0.9-0.6-1.8-0.6c-0.2,0-0.4,0-0.6,0c-0.2,0-0.3-0.2-0.3-0.5c0-0.4,0.1-0.6,0.3-0.6c1.5,0,3.5-0.3,5.9-0.9
			c0.2,0,0.3,0.2,0.3,0.5v10.8c0,1.5,0.3,2.6,0.8,3.2c0.6,0.7,1.4,1,2.6,1c0.8,0,1.4-0.1,2-0.4s1.2-0.8,1.9-1.5v-8.7
			c0-1.2-0.2-1.9-0.5-2.3c-0.3-0.4-0.9-0.6-1.8-0.6c-0.2,0-0.3,0-0.5,0c-0.2,0-0.3-0.2-0.3-0.5c0-0.4,0.1-0.6,0.3-0.6
			c1.5,0,3.5-0.3,5.9-0.9c0.2,0,0.4,0.2,0.4,0.5v12.5c0,0.9,0.1,1.5,0.4,1.8s0.8,0.5,1.8,0.7C69.3,63.1,69.4,63.3,69.4,63.6z"/>
		<path fill="#F4EED8" d="M83.4,59.9c0,1.6-0.6,2.9-1.9,4s-2.7,1.6-4.5,1.6c-0.6,0-1.6-0.1-2.9-0.4c-1-0.2-1.6-0.3-2-0.3
			c-0.1-0.9-0.3-2.3-0.7-4.2c0-0.2,0.2-0.3,0.6-0.3c0.3,0,0.5,0.1,0.6,0.3c0.3,1,0.9,1.8,1.8,2.5c0.9,0.7,1.8,1.1,2.7,1.1
			c1,0,1.7-0.3,2.3-0.8c0.5-0.5,0.8-1.3,0.8-2.3c0-0.6-0.2-1.2-0.7-1.6c-0.4-0.5-1.4-1.1-2.9-1.8c-2-0.9-3.3-1.8-3.9-2.6
			c-0.6-0.8-0.9-1.8-0.9-2.9c0-1.4,0.6-2.6,1.8-3.5c1.2-1,2.6-1.5,4.2-1.5c0.7,0,1.6,0.1,2.8,0.4c0.7,0.1,1.1,0.2,1.3,0.2
			c0,1.5,0.1,2.9,0.3,4c0,0.2-0.2,0.3-0.6,0.3c-0.3,0-0.5-0.1-0.5-0.3c-0.1-1-0.5-1.7-1.1-2.3c-0.6-0.6-1.2-0.9-2-0.9
			c-2,0-3,0.9-3,2.7c0,0.6,0.2,1.2,0.7,1.7c0.5,0.5,1.5,1.2,3.1,2c1.9,1,3.2,1.8,3.8,2.5C83.1,58.2,83.4,59,83.4,59.9z"/>
		<path fill="#F4EED8" d="M98.1,49.3c0,0.7-0.2,1.1-0.5,1.1l-5.8-0.2v9.4c0,2.5,0.9,3.7,2.6,3.7c1.1,0,2.1-0.3,2.9-0.8
			c0.1,0,0.2,0.1,0.3,0.2c0.1,0.1,0.1,0.3,0.1,0.4c0,0.3-0.5,0.8-1.4,1.3c-1,0.6-2,0.8-3.3,0.8c-1.5,0-2.7-0.5-3.5-1.4
			c-0.9-0.9-1.3-2.1-1.3-3.6v-0.2l0.1-9.6c0-0.4-0.2-0.6-0.5-0.6h-1.5c-0.3,0-0.4-0.2-0.4-0.5c0-0.3,0.1-0.5,0.3-0.6
			c1.8-1.1,3.4-2.6,4.7-4.6c0.1-0.2,0.3-0.3,0.5-0.3c0.4,0,0.5,0.1,0.5,0.3l-0.2,3.8h5.7C97.9,48.2,98.1,48.6,98.1,49.3z"/>
		<path fill="#F4EED8" d="M109.4,64.4c0,0.4-0.1,0.5-0.3,0.5c-0.5,0-1.2,0-2-0.1c-0.9-0.1-1.7-0.1-2.3-0.1c-0.6,0-1.4,0-2.3,0.1
			c-0.8,0.1-1.5,0.1-2,0.1c-0.2,0-0.3-0.2-0.3-0.5c0-0.3,0.1-0.5,0.3-0.5c1.1-0.1,1.8-0.4,2.1-0.8s0.5-1.2,0.5-2.5v-7.3
			c0-1-0.1-1.7-0.4-2.1c-0.3-0.3-0.8-0.5-1.7-0.6c-0.2,0-0.3-0.2-0.3-0.5c0-0.3,0.1-0.5,0.3-0.5c1.4-0.4,2.5-0.7,3.3-1.1
			c0.9-0.4,1.4-0.7,1.6-1c0.1-0.2,0.3-0.2,0.4-0.2c0.4,0,0.5,0.1,0.5,0.3c-0.2,2.9-0.3,5.2-0.3,6.8v6.2c0,1.3,0.2,2.1,0.5,2.5
			c0.3,0.4,1,0.7,2.2,0.8C109.3,63.9,109.4,64.1,109.4,64.4z M106.6,40.6c0,0.6-0.2,1-0.6,1.4s-0.9,0.6-1.4,0.6s-1-0.2-1.4-0.6
			c-0.4-0.4-0.6-0.9-0.6-1.4c0-0.6,0.2-1.1,0.6-1.5c0.4-0.4,0.9-0.6,1.4-0.6c0.6,0,1,0.2,1.4,0.6C106.4,39.6,106.6,40,106.6,40.6z"
			/>
		<path fill="#F4EED8" d="M131,64.4c0,0.4-0.1,0.5-0.3,0.5c-0.5,0-1.2,0-1.9-0.1c-0.8-0.1-1.6-0.1-2.2-0.1c-0.6,0-1.4,0-2.2,0.1
			c-0.8,0.1-1.4,0.1-1.9,0.1c-0.2,0-0.3-0.2-0.3-0.5c0-0.3,0.1-0.5,0.3-0.5c0.9-0.1,1.5-0.4,1.8-0.8c0.3-0.4,0.4-1.3,0.4-2.6V54
			c0-1.5-0.3-2.5-0.9-3.2c-0.6-0.7-1.5-1-2.6-1c-0.8,0-1.4,0.1-2,0.4c-0.6,0.3-1.2,0.8-1.9,1.5v8.8c0,1.3,0.1,2.1,0.4,2.6
			c0.3,0.4,0.9,0.7,1.8,0.8c0.2,0,0.3,0.2,0.3,0.5c0,0.4-0.1,0.5-0.3,0.5c-0.5,0-1.2,0-1.9-0.1c-0.8-0.1-1.6-0.1-2.2-0.1
			c-0.6,0-1.3,0-2.2,0.1c-0.8,0.1-1.4,0.1-1.9,0.1c-0.2,0-0.3-0.2-0.3-0.5c0-0.3,0.1-0.5,0.3-0.5c1.1-0.1,1.8-0.4,2.2-0.8
			c0.3-0.4,0.5-1.2,0.5-2.5v-7.3c0-1-0.1-1.7-0.4-2.1c-0.3-0.3-0.9-0.5-1.8-0.6c-0.2,0-0.3-0.2-0.3-0.5c0-0.3,0.1-0.5,0.3-0.5
			c1.3-0.3,2.4-0.7,3.2-1.1s1.4-0.8,1.6-1c0.1-0.2,0.3-0.2,0.4-0.2c0.4,0,0.5,0.1,0.5,0.3l-0.2,2.5c1.9-1.8,3.6-2.6,5.2-2.6
			c1.8,0,3.1,0.5,4.1,1.5c1,1,1.5,2.4,1.5,4.1v7.5c0,1.3,0.2,2.1,0.5,2.5c0.3,0.4,1,0.7,2.1,0.8C130.9,63.9,131,64.1,131,64.4z"/>
		<path fill="#F4EED8" d="M141.6,64.4c0,0.4-0.1,0.5-0.3,0.5c-0.5,0-1.2,0-2-0.1c-0.9-0.1-1.7-0.1-2.3-0.1c-0.6,0-1.4,0-2.3,0.1
			c-0.8,0.1-1.5,0.1-2,0.1c-0.2,0-0.3-0.2-0.3-0.5c0-0.3,0.1-0.5,0.3-0.5c1.1-0.1,1.8-0.4,2.1-0.8c0.3-0.4,0.5-1.2,0.5-2.5v-7.3
			c0-1-0.1-1.7-0.4-2.1c-0.3-0.3-0.8-0.5-1.7-0.6c-0.2,0-0.3-0.2-0.3-0.5c0-0.3,0.1-0.5,0.3-0.5c1.4-0.4,2.5-0.7,3.3-1.1
			c0.9-0.4,1.4-0.7,1.6-1c0.1-0.2,0.3-0.2,0.4-0.2c0.4,0,0.5,0.1,0.5,0.3c-0.2,2.9-0.3,5.2-0.3,6.8v6.2c0,1.3,0.2,2.1,0.5,2.5
			c0.3,0.4,1,0.7,2.2,0.8C141.5,63.9,141.6,64.1,141.6,64.4z M138.8,40.6c0,0.6-0.2,1-0.6,1.4c-0.4,0.4-0.9,0.6-1.4,0.6
			s-1-0.2-1.4-0.6c-0.4-0.4-0.6-0.9-0.6-1.4c0-0.6,0.2-1.1,0.6-1.5c0.4-0.4,0.9-0.6,1.4-0.6c0.6,0,1,0.2,1.4,0.6
			C138.6,39.6,138.8,40,138.8,40.6z"/>
	</g>
	<line fill="#5A8BBA" stroke="#7FADBA" stroke-miterlimit="10" x1="5" y1="80.5" x2="155" y2="80.5"/>
	<g>
		<path fill="#F4EED8" d="M12.7,103.6c0,0,0.1,0,0.1,0l0.3,0.3c-0.2,0.2-0.4,0.4-0.7,0.6c-0.2,0.2-0.5,0.3-0.8,0.4
			c-0.3,0.1-0.6,0.2-0.9,0.3c-0.3,0.1-0.7,0.1-1.1,0.1c-0.7,0-1.3-0.1-1.9-0.4c-0.6-0.2-1.1-0.6-1.5-1c-0.4-0.4-0.7-1-0.9-1.6
			c-0.2-0.6-0.3-1.3-0.3-2.1c0-0.8,0.1-1.4,0.3-2.1c0.2-0.6,0.6-1.2,1-1.6c0.4-0.4,0.9-0.8,1.5-1c0.6-0.2,1.2-0.4,1.9-0.4
			c0.4,0,0.7,0,1,0.1c0.3,0.1,0.6,0.1,0.8,0.2c0.3,0.1,0.5,0.2,0.7,0.4c0.2,0.2,0.4,0.3,0.7,0.5l-0.2,0.3c0,0.1-0.1,0.1-0.2,0.1
			c0,0-0.1,0-0.2-0.1c-0.1,0-0.1-0.1-0.2-0.2c-0.1-0.1-0.2-0.2-0.4-0.2c-0.1-0.1-0.3-0.2-0.5-0.2c-0.2-0.1-0.4-0.1-0.7-0.2
			s-0.5-0.1-0.9-0.1c-0.6,0-1.1,0.1-1.6,0.3s-0.9,0.5-1.3,0.9c-0.4,0.4-0.6,0.9-0.8,1.4c-0.2,0.5-0.3,1.2-0.3,1.8
			c0,0.7,0.1,1.3,0.3,1.9c0.2,0.6,0.5,1,0.8,1.4c0.4,0.4,0.8,0.7,1.2,0.9c0.5,0.2,1,0.3,1.6,0.3c0.4,0,0.7,0,0.9-0.1
			c0.3,0,0.5-0.1,0.8-0.2c0.2-0.1,0.4-0.2,0.6-0.3c0.2-0.1,0.4-0.3,0.6-0.5C12.6,103.7,12.6,103.6,12.7,103.6
			C12.7,103.6,12.7,103.6,12.7,103.6z"/>
		<path fill="#F4EED8" d="M26.7,100.3c0,0.8-0.1,1.5-0.3,2.1c-0.2,0.6-0.5,1.2-1,1.6c-0.4,0.4-0.9,0.8-1.5,1
			c-0.6,0.2-1.2,0.4-1.9,0.4c-0.7,0-1.3-0.1-1.9-0.4c-0.6-0.2-1.1-0.6-1.5-1c-0.4-0.4-0.7-1-1-1.6s-0.3-1.3-0.3-2.1
			c0-0.8,0.1-1.5,0.3-2.1c0.2-0.6,0.5-1.2,1-1.6c0.4-0.4,0.9-0.8,1.5-1c0.6-0.2,1.2-0.4,1.9-0.4c0.7,0,1.3,0.1,1.9,0.4
			c0.6,0.2,1.1,0.6,1.5,1c0.4,0.4,0.7,1,1,1.6C26.6,98.9,26.7,99.6,26.7,100.3z M26,100.3c0-0.7-0.1-1.3-0.3-1.9
			c-0.2-0.6-0.5-1-0.8-1.4c-0.3-0.4-0.8-0.7-1.2-0.9c-0.5-0.2-1-0.3-1.6-0.3c-0.6,0-1.1,0.1-1.6,0.3c-0.5,0.2-0.9,0.5-1.2,0.9
			c-0.3,0.4-0.6,0.8-0.8,1.4s-0.3,1.2-0.3,1.9c0,0.7,0.1,1.3,0.3,1.9s0.5,1,0.8,1.4c0.3,0.4,0.8,0.7,1.2,0.9s1,0.3,1.6,0.3
			c0.6,0,1.1-0.1,1.6-0.3s0.9-0.5,1.2-0.9c0.3-0.4,0.6-0.8,0.8-1.4C25.9,101.6,26,101,26,100.3z"/>
		<path fill="#F4EED8" d="M36.6,102.8c0-0.1,0.1-0.1,0.1-0.2c0-0.1,0.1-0.1,0.1-0.2l3.9-6.9c0-0.1,0.1-0.1,0.1-0.1c0,0,0.1,0,0.2,0
			h0.5v9.9h-0.6v-8.4c0-0.1,0-0.2,0-0.4l-3.9,6.9c-0.1,0.1-0.2,0.2-0.3,0.2h-0.1c-0.1,0-0.2-0.1-0.3-0.2l-4-6.9c0,0.1,0,0.3,0,0.4
			v8.4h-0.6v-9.9h0.5c0.1,0,0.1,0,0.2,0s0.1,0.1,0.1,0.1l4,6.9C36.4,102.5,36.5,102.7,36.6,102.8z"/>
		<path fill="#F4EED8" d="M51.8,102.8c0-0.1,0.1-0.1,0.1-0.2c0-0.1,0.1-0.1,0.1-0.2l3.9-6.9c0-0.1,0.1-0.1,0.1-0.1c0,0,0.1,0,0.2,0
			h0.5v9.9H56v-8.4c0-0.1,0-0.2,0-0.4l-3.9,6.9c-0.1,0.1-0.2,0.2-0.3,0.2h-0.1c-0.1,0-0.2-0.1-0.3-0.2l-4-6.9c0,0.1,0,0.3,0,0.4v8.4
			h-0.6v-9.9h0.5c0.1,0,0.1,0,0.2,0s0.1,0.1,0.1,0.1l4,6.9C51.7,102.5,51.7,102.7,51.8,102.8z"/>
		<path fill="#F4EED8" d="M68,95.4V96h-5.2v4h4.3v0.6h-4.3v4.1H68v0.6h-5.9v-9.9H68z"/>
		<path fill="#F4EED8" d="M73.8,100.8v4.5h-0.7v-9.9h2.5c1.1,0,2,0.2,2.5,0.7S79,97.1,79,98c0,0.4-0.1,0.7-0.2,1
			c-0.1,0.3-0.3,0.6-0.6,0.8c-0.2,0.2-0.5,0.4-0.9,0.6c-0.3,0.2-0.7,0.2-1.2,0.3c0.1,0.1,0.2,0.2,0.3,0.3l3.4,4.3h-0.6
			c-0.1,0-0.1,0-0.2,0c-0.1,0-0.1-0.1-0.2-0.1l-3.1-4c-0.1-0.1-0.2-0.2-0.3-0.2c-0.1,0-0.2-0.1-0.4-0.1H73.8z M73.8,100.3h1.7
			c0.4,0,0.8-0.1,1.2-0.2s0.6-0.3,0.9-0.5c0.2-0.2,0.4-0.4,0.5-0.7c0.1-0.3,0.2-0.6,0.2-0.9c0-0.7-0.2-1.2-0.7-1.6
			c-0.5-0.3-1.1-0.5-2-0.5h-1.8V100.3z"/>
		<path fill="#F4EED8" d="M91.1,103.6c0,0,0.1,0,0.1,0l0.3,0.3c-0.2,0.2-0.4,0.4-0.7,0.6c-0.2,0.2-0.5,0.3-0.8,0.4
			c-0.3,0.1-0.6,0.2-0.9,0.3c-0.3,0.1-0.7,0.1-1.1,0.1c-0.7,0-1.3-0.1-1.9-0.4c-0.6-0.2-1.1-0.6-1.5-1c-0.4-0.4-0.7-1-0.9-1.6
			c-0.2-0.6-0.3-1.3-0.3-2.1c0-0.8,0.1-1.4,0.3-2.1c0.2-0.6,0.6-1.2,1-1.6c0.4-0.4,0.9-0.8,1.5-1c0.6-0.2,1.2-0.4,1.9-0.4
			c0.4,0,0.7,0,1,0.1c0.3,0.1,0.6,0.1,0.8,0.2c0.3,0.1,0.5,0.2,0.7,0.4c0.2,0.2,0.4,0.3,0.7,0.5l-0.2,0.3c0,0.1-0.1,0.1-0.2,0.1
			c0,0-0.1,0-0.2-0.1s-0.1-0.1-0.2-0.2c-0.1-0.1-0.2-0.2-0.4-0.2c-0.1-0.1-0.3-0.2-0.5-0.2c-0.2-0.1-0.4-0.1-0.7-0.2
			s-0.5-0.1-0.9-0.1c-0.6,0-1.1,0.1-1.6,0.3c-0.5,0.2-0.9,0.5-1.3,0.9c-0.4,0.4-0.6,0.9-0.8,1.4c-0.2,0.5-0.3,1.2-0.3,1.8
			c0,0.7,0.1,1.3,0.3,1.9c0.2,0.6,0.5,1,0.8,1.4c0.4,0.4,0.8,0.7,1.2,0.9c0.5,0.2,1,0.3,1.6,0.3c0.4,0,0.7,0,0.9-0.1
			s0.5-0.1,0.8-0.2c0.2-0.1,0.4-0.2,0.6-0.3c0.2-0.1,0.4-0.3,0.6-0.5C91,103.7,91,103.6,91.1,103.6
			C91.1,103.6,91.1,103.6,91.1,103.6z"/>
		<path fill="#F4EED8" d="M97.3,105.3h-0.7v-9.9h0.7V105.3z"/>
		<path fill="#F4EED8" d="M110.5,105.3H110c-0.1,0-0.1,0-0.2-0.1c0,0-0.1-0.1-0.1-0.1l-1.2-2.9h-4.8l-1.1,2.9c0,0.1-0.1,0.1-0.1,0.1
			c0,0-0.1,0.1-0.2,0.1h-0.5l4-9.9h0.7L110.5,105.3z M104,101.7h4.4l-2-5c0-0.1-0.1-0.2-0.1-0.3c0-0.1-0.1-0.2-0.1-0.3
			c0,0.1-0.1,0.2-0.1,0.3c0,0.1-0.1,0.2-0.1,0.3L104,101.7z"/>
		<path fill="#F4EED8" d="M115.4,104.7h4.6v0.6h-5.4v-9.9h0.7V104.7z"/>
		<path fill="#F4EED8" d="M125.4,105.3h-0.7v-9.9h0.7V105.3z"/>
		<path fill="#F4EED8" d="M135.9,96.6c0,0.1-0.1,0.1-0.2,0.1c-0.1,0-0.1,0-0.2-0.1c-0.1-0.1-0.2-0.2-0.4-0.3s-0.4-0.2-0.6-0.3
			c-0.2-0.1-0.5-0.1-0.9-0.1s-0.7,0.1-0.9,0.2c-0.3,0.1-0.5,0.2-0.7,0.4c-0.2,0.2-0.3,0.4-0.4,0.6s-0.1,0.5-0.1,0.7
			c0,0.3,0.1,0.6,0.2,0.8c0.1,0.2,0.3,0.4,0.6,0.6c0.2,0.2,0.5,0.3,0.8,0.4c0.3,0.1,0.6,0.2,0.9,0.3c0.3,0.1,0.6,0.2,0.9,0.3
			c0.3,0.1,0.6,0.3,0.8,0.5c0.2,0.2,0.4,0.4,0.6,0.7c0.1,0.3,0.2,0.6,0.2,1c0,0.4-0.1,0.8-0.2,1.2c-0.1,0.4-0.3,0.7-0.6,1
			c-0.3,0.3-0.6,0.5-1,0.6s-0.8,0.2-1.3,0.2c-0.6,0-1.2-0.1-1.7-0.3c-0.5-0.2-0.9-0.5-1.2-0.9l0.2-0.3c0.1-0.1,0.1-0.1,0.2-0.1
			c0,0,0.1,0,0.2,0.1s0.1,0.1,0.2,0.2c0.1,0.1,0.2,0.2,0.3,0.3c0.1,0.1,0.3,0.2,0.5,0.3c0.2,0.1,0.4,0.2,0.6,0.2
			c0.2,0.1,0.5,0.1,0.8,0.1c0.4,0,0.7-0.1,1-0.2c0.3-0.1,0.6-0.3,0.8-0.5c0.2-0.2,0.4-0.4,0.5-0.7s0.2-0.6,0.2-0.9
			c0-0.3-0.1-0.6-0.2-0.9c-0.1-0.2-0.3-0.4-0.6-0.6s-0.5-0.3-0.8-0.4c-0.3-0.1-0.6-0.2-0.9-0.3c-0.3-0.1-0.6-0.2-0.9-0.3
			c-0.3-0.1-0.6-0.3-0.8-0.5c-0.2-0.2-0.4-0.4-0.6-0.7c-0.1-0.3-0.2-0.6-0.2-1.1c0-0.3,0.1-0.7,0.2-1c0.1-0.3,0.3-0.6,0.5-0.8
			c0.2-0.2,0.5-0.4,0.9-0.6c0.4-0.1,0.8-0.2,1.2-0.2c0.5,0,1,0.1,1.4,0.2c0.4,0.2,0.8,0.4,1.1,0.7L135.9,96.6z"/>
		<path fill="#F4EED8" d="M147.5,95.4V96H144v9.3h-0.7V96h-3.5v-0.6H147.5z"/>
		<path fill="#F4EED8" d="M152.8,105.3H152v-9.9h0.7V105.3z"/>
	</g>
</g>
</svg>
